<svg version="1.1" id="Layer_1" xmlns="http://www.w3.org/2000/svg" xmlns:xlink="http://www.w3.org/1999/xlink" x="0px" y="0px"
	 width="100%" viewBox="0 0 1024 544" enable-background="new 0 0 1024 544" xml:space="preserve">
<path fill="#000000" opacity="1.000000" stroke="none" 
	d="
M208.623184,301.686371 
	C220.616730,287.811432 236.315063,281.292816 253.134888,276.791656 
	C262.367615,274.320892 261.697113,275.938965 261.710419,265.588806 
	C261.720886,257.422577 261.674255,249.256226 261.702026,241.090088 
	C261.712524,238.003571 261.134521,234.877182 257.498962,234.942657 
	C253.918045,235.007172 253.338837,238.221176 253.331589,241.238327 
	C253.310837,249.904495 253.180298,258.574036 253.384109,267.235382 
	C253.468872,270.837097 252.394608,272.811615 248.681335,273.487946 
	C245.800934,274.012604 243.032730,275.153351 240.430649,275.953796 
	C238.315689,273.986115 238.920593,271.873260 238.914520,269.958405 
	C238.883820,260.292480 238.843597,250.624817 238.999756,240.960892 
	C239.071579,236.517426 238.064606,233.069336 233.258911,231.744705 
	C229.778168,230.785309 230.772552,227.857330 230.848099,225.508728 
	C230.938461,222.699615 233.157471,222.662689 235.211624,222.644897 
	C257.364502,222.452835 279.517303,222.245575 301.670624,222.126526 
	C304.074097,222.113602 307.010803,221.839584 307.220245,225.552719 
	C307.379974,228.384048 307.771606,231.148087 303.763367,232.106949 
	C299.449738,233.138916 298.467834,236.859253 298.433868,240.719620 
	C298.369354,248.050369 298.373016,255.386658 298.600769,262.712799 
	C298.700378,265.916565 297.621490,267.143585 294.376099,267.326172 
	C284.489960,267.882355 284.533478,267.989288 284.595398,258.210327 
	C284.630219,252.712189 284.675385,247.205261 284.404205,241.717712 
	C284.267090,238.943390 283.938904,235.415115 280.143890,235.454620 
	C276.233307,235.495316 276.301361,238.959335 276.283417,241.809814 
	C276.227753,250.642227 276.258392,259.475189 276.253448,268.307953 
	C276.252167,270.633728 276.423492,272.919128 279.666077,272.456909 
	C294.254211,270.377472 308.939331,271.187683 323.587372,270.888397 
	C324.215088,270.875580 324.838623,270.657593 325.711731,270.486725 
	C323.696045,265.037567 316.265228,263.958649 315.817993,257.894226 
	C315.421509,252.518463 315.734863,247.090347 315.734863,241.236404 
	C319.631287,242.042374 321.295868,244.506424 323.328857,246.304291 
	C334.559906,256.236572 345.666107,266.310242 356.920044,276.216217 
	C359.907410,278.845764 359.901062,280.614441 356.806763,283.327881 
	C344.782471,293.872131 333.002747,304.694885 321.087067,315.363831 
	C319.803680,316.512909 318.801361,318.335632 316.248199,317.994232 
	C314.912201,307.316986 313.506653,296.739746 325.249329,290.587372 
	C323.626129,287.741455 321.622162,288.168671 319.902710,288.169556 
	C307.404449,288.176086 294.905853,288.342590 282.408173,288.283783 
	C277.737579,288.261810 275.872589,290.061798 276.141815,294.884064 
	C276.494324,301.197021 276.389496,307.551361 276.162933,313.876495 
	C275.910553,320.921021 273.921234,327.365082 268.138214,331.996979 
	C266.743958,333.113708 265.119812,334.647675 263.238861,333.895233 
	C261.113586,333.045105 261.802460,330.741364 261.789764,329.009705 
	C261.715179,318.844025 261.900360,308.672852 261.607788,298.514801 
	C261.534180,295.959320 263.869354,291.520050 258.306702,291.359375 
	C253.160660,291.210663 253.243698,294.787018 253.261826,298.546753 
	C253.346237,316.045471 253.167862,333.546387 253.382187,351.042908 
	C253.437119,355.528381 252.041626,356.759308 247.612762,356.443268 
	C229.478470,355.149048 211.712158,339.963104 207.734268,322.196838 
	C206.941010,318.653931 207.438034,316.165314 210.754257,314.234039 
	C213.706711,312.514618 216.193237,309.914978 220.549927,309.656128 
	C221.333603,318.379578 223.621902,326.431702 230.037827,332.621399 
	C232.302536,334.806244 234.555756,337.061157 238.342346,338.106323 
	C238.342346,324.404877 238.342346,310.940735 238.342346,296.887756 
	C225.341782,299.743713 214.407150,306.447998 202.968933,314.130798 
	C203.214920,308.368958 206.068604,305.287445 208.623184,301.686371 
z"/>
<path fill="#000000" opacity="1.000000" stroke="none" 
	d="
M267.000000,203.110626 
	C280.479187,203.111053 293.458557,203.075439 306.437378,203.146225 
	C308.744232,203.158783 311.159241,203.263062 313.327942,203.947342 
	C316.455750,204.934250 318.192291,207.431168 318.191467,210.768967 
	C318.190613,214.177628 316.277802,216.462311 313.089661,217.338348 
	C311.040955,217.901306 308.821960,218.030289 306.678650,218.034470 
	C281.552399,218.083496 256.426025,218.079468 231.299713,218.059387 
	C229.645126,218.058060 227.965500,217.950180 226.341232,217.652969 
	C222.272583,216.908463 219.604950,214.734421 219.806137,210.253769 
	C219.985046,206.268982 223.166702,203.469177 227.585968,203.419357 
	C240.556824,203.273041 253.528595,203.207870 267.000000,203.110626 
z"/>
<path fill="#000000" opacity="1.000000" stroke="none" 
	d="
M769.741638,301.769958 
	C769.722412,289.148346 769.849304,276.998413 769.628723,264.854767 
	C769.550659,260.554993 770.980042,258.712830 775.354431,259.008057 
	C781.300171,259.409332 787.349731,258.332397 793.180298,260.347656 
	C803.693909,263.981628 806.600647,275.047302 798.698669,282.856842 
	C795.602112,285.917206 795.802124,287.990479 797.896423,291.327484 
	C800.679199,295.761383 804.315857,299.757904 806.044556,304.842590 
	C799.709473,307.768768 796.020691,306.767426 792.712097,301.536377 
	C790.400452,297.881500 788.042053,294.255951 785.677979,290.634613 
	C784.923523,289.479095 783.944641,288.474976 782.427124,288.778137 
	C780.624878,289.138123 780.199219,290.629364 780.149963,292.205566 
	C780.051270,295.364868 780.033508,298.526611 779.968079,301.687042 
	C779.914795,304.257111 779.313416,306.375031 776.085754,306.268005 
	C773.180176,306.171631 769.673279,307.032715 769.741638,301.769958 
M780.396118,269.281372 
	C780.296936,271.102753 780.084900,272.926636 780.125061,274.744934 
	C780.184753,277.448517 780.188354,280.387512 783.991150,280.553162 
	C787.809143,280.719452 791.056946,279.395325 792.308350,275.557220 
	C793.375916,272.282806 791.930176,269.583038 788.796326,268.193451 
	C786.159180,267.024109 783.359985,266.609253 780.396118,269.281372 
z"/>
<path fill="#000000" opacity="1.000000" stroke="none" 
	d="
M760.975830,278.910522 
	C760.771484,282.886047 760.544006,286.374115 760.387268,289.865326 
	C760.089722,296.491974 756.575562,301.175842 751.123535,304.366974 
	C738.559326,311.721008 722.649597,304.168152 721.227600,289.780426 
	C720.346741,280.868286 720.920105,271.810913 720.873047,262.818573 
	C720.853882,259.162933 723.487793,259.125244 726.095886,259.109100 
	C729.075989,259.090668 731.289795,259.736267 731.241882,263.508545 
	C731.140503,271.503082 731.076538,279.506744 731.344788,287.494965 
	C731.617432,295.612000 739.215393,300.050629 745.664246,296.117188 
	C748.870850,294.161377 749.879395,291.101562 749.881897,287.592682 
	C749.887329,279.930023 749.936157,272.265015 749.763794,264.605560 
	C749.682251,260.984650 750.625000,258.977814 754.746826,258.988495 
	C758.666870,258.998688 761.224487,259.731262 761.008362,264.433777 
	C760.794495,269.087891 760.976379,273.760193 760.975830,278.910522 
z"/>
<path fill="#000000" opacity="1.000000" stroke="none" 
	d="
M260.221191,341.390503 
	C276.017609,335.963928 284.039612,325.169312 284.554901,308.834229 
	C284.691162,304.514740 284.636841,300.184814 284.523743,295.863495 
	C284.456635,293.300140 285.477081,292.120209 288.054260,292.366425 
	C288.219757,292.382233 288.385925,292.399078 288.551910,292.400940 
	C297.942993,292.505920 297.946472,292.505524 298.551300,302.644623 
	C299.500732,318.561340 296.408997,333.110870 284.200134,344.498932 
	C277.978180,350.302612 270.636902,353.964996 262.323761,355.817413 
	C258.956177,356.567841 257.332855,355.352020 257.822937,352.099854 
	C258.354919,348.569702 255.727768,344.386841 260.221191,341.390503 
z"/>
<path fill="#000000" opacity="1.000000" stroke="none" 
	d="
M548.520630,301.535767 
	C540.958618,291.465790 533.609375,281.689423 526.149658,271.766022 
	C523.858459,274.030853 524.405701,276.295135 524.383911,278.351562 
	C524.301208,286.174774 524.361755,293.999329 524.312073,301.823029 
	C524.300842,303.587952 524.667419,305.850037 521.975647,305.979675 
	C519.077515,306.119171 519.577209,303.745728 519.575378,302.029266 
	C519.561890,289.218475 519.595154,276.407471 519.667053,263.596832 
	C519.674988,262.179657 519.384094,260.419037 521.390015,259.921783 
	C523.076721,259.503662 524.299622,260.414642 525.243774,261.660431 
	C529.364868,267.097687 533.446777,272.564545 537.546448,278.017914 
	C541.525330,283.310638 545.508545,288.600098 550.699951,293.622620 
	C550.699951,288.254761 550.696472,282.886871 550.700989,277.519012 
	C550.704895,272.857910 550.685486,268.196442 550.744019,263.535950 
	C550.764954,261.872040 550.749573,260.002228 553.137085,259.897522 
	C555.754028,259.782684 556.054016,261.716187 556.058899,263.612823 
	C556.092285,276.596832 556.074402,289.581055 556.051758,302.565155 
	C556.049377,303.918915 555.898560,305.322327 554.372437,305.871918 
	C552.914673,306.396881 551.781250,305.669006 550.870667,304.593048 
	C550.119080,303.704956 549.442932,302.753021 548.520630,301.535767 
z"/>
<path fill="#000000" opacity="1.000000" stroke="none" 
	d="
M454.775757,301.682709 
	C464.028412,300.376862 464.716339,299.572540 464.762329,292.808502 
	C464.785980,289.327698 463.569031,287.980530 460.111481,288.152588 
	C458.311554,288.242126 455.527924,288.966309 455.488037,285.927032 
	C455.447601,282.842651 458.233337,283.677124 460.047546,283.616058 
	C470.149719,283.276031 470.150848,283.308533 470.153931,293.556305 
	C470.156494,302.050507 469.193512,303.277039 460.793396,305.479218 
	C441.410950,310.560516 426.441467,297.039062 429.902863,277.326691 
	C433.091248,259.168884 453.544312,254.597046 466.873383,263.210602 
	C468.270020,264.113129 469.224701,265.224304 468.081848,266.898590 
	C466.820251,268.746918 465.238831,268.226501 463.725830,267.243042 
	C458.180786,263.638580 452.203156,262.877533 446.076050,265.148712 
	C437.513336,268.322754 433.589874,276.808960 435.421600,287.403168 
	C436.934143,296.151581 444.042786,301.517059 454.775757,301.682709 
z"/>
<path fill="#000000" opacity="1.000000" stroke="none" 
	d="
M397.694122,270.761169 
	C398.954956,267.634003 399.897491,264.768433 401.264679,262.122253 
	C402.960876,258.839294 406.872467,258.531311 408.231415,261.740753 
	C414.302185,276.078156 420.072021,290.542969 426.002289,305.088684 
	C422.340881,307.059509 420.174713,305.815063 419.481201,302.792480 
	C417.423004,293.822205 411.903015,291.871277 403.158905,292.001312 
	C395.870697,292.109741 392.620697,294.717102 390.750549,301.026794 
	C389.890076,303.929901 388.967072,307.505493 383.837433,305.200317 
	C387.905792,293.569641 392.763885,282.355988 397.694122,270.761169 
M410.127136,280.253082 
	C408.499786,276.210510 406.872406,272.167938 404.731171,266.848816 
	C402.038696,273.568481 399.879395,278.905792 397.767029,284.261627 
	C397.148010,285.831177 397.190338,287.495117 399.243225,287.652924 
	C403.575989,287.985901 407.976013,288.486542 412.605560,286.960785 
	C411.764771,284.639221 411.096649,282.794434 410.127136,280.253082 
z"/>
<path fill="#000000" opacity="1.000000" stroke="none" 
	d="
M630.710449,299.824554 
	C635.709656,287.633789 640.568604,275.802673 645.437256,263.975525 
	C646.323242,261.823212 647.016968,259.538971 650.121094,259.664368 
	C653.020081,259.781494 653.439148,262.112915 654.223755,264.024017 
	C659.460083,276.778015 664.635864,289.556915 669.800659,302.340118 
	C670.159180,303.227509 670.269958,304.215057 670.529968,305.297394 
	C666.800964,307.361603 664.837524,305.371613 664.146301,302.381439 
	C662.248291,294.170319 657.506531,291.798523 649.134705,292.040710 
	C641.914612,292.249573 637.779663,293.869171 635.775024,301.116302 
	C634.288574,306.490051 633.712769,306.330780 629.362183,305.340881 
	C628.730957,303.389038 630.007874,301.867493 630.710449,299.824554 
M651.283447,270.639923 
	C650.709778,269.936279 650.947205,268.586731 649.394287,268.476074 
	C646.263794,274.408203 644.208191,280.785339 641.711548,287.503082 
	C647.217773,288.099884 651.930481,288.038239 657.156677,287.467194 
	C656.100464,281.480377 653.459473,276.485291 651.283447,270.639923 
z"/>
<path fill="#000000" opacity="1.000000" stroke="none" 
	d="
M712.109314,269.075378 
	C712.121948,276.222900 712.278198,282.884369 712.111816,289.537781 
	C711.801880,301.927856 703.769104,308.358429 691.549927,306.223846 
	C689.371521,305.843292 687.600952,305.102844 687.950195,302.448792 
	C688.285950,299.897583 688.783203,297.622803 692.251770,297.418884 
	C700.625183,296.926636 701.671204,295.671265 701.690552,287.112549 
	C701.707458,279.622437 701.874207,272.126312 701.625061,264.644470 
	C701.487915,260.524658 703.008423,259.017853 707.077820,259.011993 
	C711.164673,259.006104 712.343079,260.972931 712.097412,264.592133 
	C712.007507,265.916992 712.098755,267.254150 712.109314,269.075378 
z"/>
<path fill="#000000" opacity="1.000000" stroke="none" 
	d="
M497.963135,306.236267 
	C493.304565,306.229889 489.138031,306.158325 484.974579,306.241058 
	C482.051697,306.299103 480.722626,305.081573 480.734711,302.094513 
	C480.786743,289.265747 480.792725,276.436401 480.719421,263.607849 
	C480.701782,260.522156 482.180664,259.539459 485.021088,259.580811 
	C491.850708,259.680206 498.682343,259.637085 505.512390,259.718201 
	C507.120850,259.737274 509.194153,259.524750 509.049896,262.060425 
	C508.913666,264.455109 506.878784,264.223297 505.273773,264.245514 
	C500.442963,264.312500 495.608795,264.365570 490.779816,264.254883 
	C487.659821,264.183380 486.211792,265.345184 486.237793,268.617584 
	C486.346405,282.288696 485.183105,279.623444 496.745575,279.831940 
	C498.078033,279.855957 499.416260,279.770996 500.742676,279.865387 
	C502.508820,279.990967 504.842255,279.656586 504.972900,282.224518 
	C505.108978,284.897705 502.717133,284.718079 500.978241,284.798798 
	C497.652161,284.953247 494.312408,284.998260 490.985016,284.888184 
	C487.631866,284.777222 486.315826,286.096466 486.200623,289.571442 
	C485.800171,301.653351 485.688416,301.652557 497.836761,301.634979 
	C500.835724,301.630646 503.834595,301.600983 506.833527,301.583344 
	C508.316528,301.574646 509.555389,301.971191 509.567047,303.731598 
	C509.578125,305.403107 508.431000,306.071808 506.950256,306.120117 
	C504.120728,306.212555 501.287933,306.203735 497.963135,306.236267 
z"/>
<path fill="#000000" opacity="1.000000" stroke="none" 
	d="
M580.144348,305.393188 
	C567.973206,299.831573 562.757568,286.694092 567.218750,273.731415 
	C570.931702,262.943085 582.349609,256.979034 594.275330,259.716400 
	C596.193298,260.156616 598.133850,260.892670 599.802795,261.917297 
	C601.614990,263.029907 604.848694,264.023071 603.019409,266.993408 
	C601.343689,269.714478 599.185120,267.345917 597.431030,266.387573 
	C590.765198,262.745758 584.123840,262.967926 578.166199,267.439331 
	C571.802185,272.215698 570.310486,279.288879 571.646973,286.741486 
	C574.104492,300.444672 586.702881,305.706421 598.519104,298.202728 
	C600.208801,297.129730 602.014587,295.410217 603.623230,297.875427 
	C605.043579,300.052155 602.769165,301.213226 601.465942,302.240021 
	C595.139526,307.224579 587.930176,307.046082 580.144348,305.393188 
z"/>
<path fill="#000000" opacity="1.000000" stroke="none" 
	d="
M818.975586,259.061951 
	C822.771790,258.902100 824.178894,260.471924 824.146667,263.859863 
	C824.026489,276.492950 823.989136,289.127502 824.036621,301.761078 
	C824.049866,305.268066 822.429382,306.351318 819.129883,306.346039 
	C815.759338,306.340607 813.772034,305.517609 813.798279,301.636902 
	C813.883850,289.003418 813.865845,276.368042 813.732605,263.735016 
	C813.695496,260.219788 815.283936,258.913605 818.975586,259.061951 
z"/>
<path fill="#000000" opacity="1.000000" stroke="none" 
	d="
M621.067871,278.001282 
	C621.061462,286.140869 621.088989,293.781189 621.022766,301.420715 
	C621.004395,303.541565 621.207520,306.102417 617.986938,306.083893 
	C614.756531,306.065338 615.016052,303.488983 615.013000,301.380157 
	C614.995361,289.089630 615.015320,276.798798 615.105469,264.508667 
	C615.120605,262.448181 614.783875,259.802277 618.075134,259.827820 
	C621.343689,259.853180 620.963196,262.465668 621.008545,264.547302 
	C621.102478,268.863800 621.055481,273.183380 621.067871,278.001282 
z"/>
<path fill="#000000" opacity="1.000000" stroke="none" 
	d="
M503.411926,256.182739 
	C502.280151,255.966751 501.301056,255.961060 500.735992,255.474518 
	C497.309387,252.524033 494.033783,251.655731 490.433838,255.313049 
	C489.238770,256.527222 487.415100,256.426971 484.876678,255.545181 
	C487.991821,252.099945 490.258209,248.358246 494.927734,247.924072 
	C499.508667,247.498138 501.829285,251.328323 504.605133,254.063858 
	C505.528625,254.973999 505.045624,255.867462 503.411926,256.182739 
z"/>
</svg>